<svg width="148" height="90" viewBox="0 0 148 90" fill="none" xmlns="http://www.w3.org/2000/svg">
<path d="M24.8718 89.6198C16.5812 89.6198 9.83399 82.8726 9.83399 74.582V15.6198C9.83399 13.0753 7.76917 11.0104 5.22463 11.0104C2.33596 11.0104 0 8.67448 0 5.79624C0 2.918 2.33596 0.582031 5.21421 0.582031C13.5048 0.582031 20.252 7.32922 20.252 15.6198V74.582C20.252 77.1266 22.3168 79.1914 24.8613 79.1914C27.7396 79.1914 30.0755 81.5274 30.0755 84.4056C30.0755 87.2839 27.7396 89.6198 24.8613 89.6198H24.8718Z" fill="url(#paint0_linear_737_242)"/>
<path d="M64.1768 89.6205C55.8862 89.6205 49.139 82.8733 49.139 74.5827V35.278C49.139 32.7335 47.0742 30.6686 44.5296 30.6686C41.6514 30.6686 39.3154 28.3327 39.3154 25.4544C39.3154 22.5762 41.6514 20.2402 44.5296 20.2402C52.8202 20.2402 59.5674 26.9874 59.5674 35.278V74.5827C59.5674 77.1272 61.6322 79.192 64.1768 79.192C67.055 79.192 69.391 81.528 69.391 84.4062C69.391 87.2845 67.055 89.6205 64.1768 89.6205Z" fill="url(#paint1_linear_737_242)"/>
<path d="M24.8724 89.6205C21.9942 89.6205 19.6582 87.2845 19.6582 84.4062C19.6582 81.528 21.9942 79.192 24.8724 79.192C27.4169 79.192 29.4818 77.1272 29.4818 74.5827V35.278C29.4818 26.9874 36.2289 20.2402 44.5195 20.2402C47.3978 20.2402 49.7337 22.5762 49.7337 25.4544C49.7337 28.3327 47.3978 30.6686 44.5195 30.6686C41.975 30.6686 39.9102 32.7335 39.9102 35.278V74.5827C39.9102 82.8733 33.163 89.6205 24.8724 89.6205Z" fill="url(#paint2_linear_737_242)"/>
<path d="M64.1761 89.6198C61.2979 89.6198 58.9619 87.2839 58.9619 84.4056C58.9619 81.5274 61.2979 79.1914 64.1761 79.1914C66.7207 79.1914 68.7855 77.1266 68.7855 74.582V15.6198C68.7855 7.32922 75.5327 0.582031 83.8232 0.582031C86.7015 0.582031 89.0375 2.918 89.0375 5.79624C89.0375 8.67448 86.7015 11.0104 83.8232 11.0104C81.2787 11.0104 79.2139 13.0753 79.2139 15.6198V74.582C79.2139 82.8726 72.4667 89.6198 64.1761 89.6198Z" fill="url(#paint3_linear_737_242)"/>
<path d="M103.481 89.6198C95.1909 89.6198 88.4437 82.8726 88.4437 74.582V15.6198C88.4437 13.0753 86.3789 11.0104 83.8343 11.0104C80.9561 11.0104 78.6201 8.67448 78.6201 5.79624C78.6201 2.918 80.9561 0.582031 83.8343 0.582031C92.1249 0.582031 98.8721 7.32922 98.8721 15.6198V74.582C98.8721 77.1266 100.937 79.1914 103.481 79.1914C106.36 79.1914 108.696 81.5274 108.696 84.4056C108.696 87.2839 106.36 89.6198 103.481 89.6198Z" fill="url(#paint4_linear_737_242)"/>
<path d="M103.481 89.6192C100.603 89.6192 98.2666 87.2832 98.2666 84.405C98.2666 81.5267 100.603 79.1908 103.481 79.1908C106.025 79.1908 108.09 77.1259 108.09 74.5814V45.1003C108.09 36.8097 114.837 30.0625 123.128 30.0625C126.006 30.0625 128.342 32.3985 128.342 35.2767C128.342 38.1549 126.006 40.4909 123.128 40.4909C120.583 40.4909 118.519 42.5557 118.519 45.1003V74.5814C118.519 82.872 111.771 89.6192 103.481 89.6192Z" fill="url(#paint5_linear_737_242)"/>
<path d="M142.785 89.6192C134.495 89.6192 127.747 82.872 127.747 74.5814V45.1003C127.747 42.5557 125.683 40.4909 123.138 40.4909C120.26 40.4909 117.924 38.1549 117.924 35.2767C117.924 32.3985 120.26 30.0625 123.138 30.0625C131.429 30.0625 138.176 36.8097 138.176 45.1003V74.5814C138.176 77.1259 140.241 79.1908 142.785 79.1908C145.663 79.1908 147.999 81.5267 147.999 84.405C147.999 87.2832 145.663 89.6192 142.785 89.6192Z" fill="url(#paint6_linear_737_242)"/>
<defs>
<linearGradient id="paint0_linear_737_242" x1="1.97333" y1="2.06203" x2="17.6367" y2="83.462" gradientUnits="userSpaceOnUse">
<stop stop-color="#30A332"/>
<stop offset="1" stop-color="#2EB3C0"/>
</linearGradient>
<linearGradient id="paint1_linear_737_242" x1="51.1834" y1="26.1127" x2="57.8434" y2="80.5027" gradientUnits="userSpaceOnUse">
<stop stop-color="#5AAEF7"/>
<stop offset="1" stop-color="#BF95E8"/>
</linearGradient>
<linearGradient id="paint2_linear_737_242" x1="34.696" y1="20.2402" x2="25.0372" y2="74.9527" gradientUnits="userSpaceOnUse">
<stop stop-color="#5AAFF7"/>
<stop offset="1" stop-color="#2EB2BF"/>
</linearGradient>
<linearGradient id="paint3_linear_737_242" x1="78.0697" y1="9.46203" x2="66.4763" y2="79.6387" gradientUnits="userSpaceOnUse">
<stop stop-color="#F0A19E"/>
<stop offset="1" stop-color="#BF95E8"/>
</linearGradient>
<linearGradient id="paint4_linear_737_242" x1="93.7335" y1="7.73537" x2="96.6935" y2="80.7487" gradientUnits="userSpaceOnUse">
<stop stop-color="#F0A19E"/>
<stop offset="1" stop-color="#F4B745"/>
</linearGradient>
<linearGradient id="paint5_linear_737_242" x1="117.783" y1="38.8147" x2="111.37" y2="80.0081" gradientUnits="userSpaceOnUse">
<stop stop-color="#EF764F"/>
<stop offset="1" stop-color="#F4B745"/>
</linearGradient>
<linearGradient id="paint6_linear_737_242" x1="128.636" y1="37.9514" x2="135.419" y2="88.5181" gradientUnits="userSpaceOnUse">
<stop stop-color="#EF764F"/>
<stop offset="0.0001" stop-color="#EF764E"/>
<stop offset="1" stop-color="#EA335A"/>
</linearGradient>
</defs>
</svg>
